<?xml version="1.0" encoding="UTF-8" standalone="no"?>
<svg
   xmlns:dc="http://purl.org/dc/elements/1.1/"
   xmlns:cc="http://creativecommons.org/ns#"
   xmlns:rdf="http://www.w3.org/1999/02/22-rdf-syntax-ns#"
   xmlns:svg="http://www.w3.org/2000/svg"
   xmlns="http://www.w3.org/2000/svg"
   xmlns:sodipodi="http://sodipodi.sourceforge.net/DTD/sodipodi-0.dtd"
   xmlns:inkscape="http://www.inkscape.org/namespaces/inkscape"
   width="136.40221mm"
   height="34.600132mm"
   viewBox="0 0 136.40221 34.600132"
   version="1.1"
   id="svg8"
   inkscape:version="1.0.1 (3bc2e813f5, 2020-09-07)"
   sodipodi:docname="logo.svg">
  <defs
     id="defs2">
    <inkscape:path-effect
       effect="bspline"
       id="path-effect965"
       is_visible="true"
       lpeversion="1"
       weight="33.333333"
       steps="2"
       helper_size="0"
       apply_no_weight="true"
       apply_with_weight="true"
       only_selected="false" />
    <inkscape:path-effect
       effect="bspline"
       id="path-effect961"
       is_visible="true"
       lpeversion="1"
       weight="33.333333"
       steps="2"
       helper_size="0"
       apply_no_weight="true"
       apply_with_weight="true"
       only_selected="false" />
    <inkscape:path-effect
       effect="spiro"
       id="path-effect957"
       is_visible="true"
       lpeversion="1" />
    <inkscape:path-effect
       effect="spiro"
       id="path-effect949"
       is_visible="true"
       lpeversion="1" />
    <inkscape:path-effect
       effect="spiro"
       id="path-effect945"
       is_visible="true"
       lpeversion="1" />
    <inkscape:path-effect
       effect="bspline"
       id="path-effect896"
       is_visible="true"
       lpeversion="1"
       weight="33.333333"
       steps="2"
       helper_size="0"
       apply_no_weight="true"
       apply_with_weight="true"
       only_selected="false" />
    <inkscape:path-effect
       effect="bspline"
       id="path-effect892"
       is_visible="true"
       lpeversion="1"
       weight="33.333333"
       steps="2"
       helper_size="0"
       apply_no_weight="true"
       apply_with_weight="true"
       only_selected="false" />
    <inkscape:path-effect
       effect="bspline"
       id="path-effect888"
       is_visible="true"
       lpeversion="1"
       weight="33.333333"
       steps="2"
       helper_size="0"
       apply_no_weight="true"
       apply_with_weight="true"
       only_selected="false" />
    <inkscape:path-effect
       effect="bspline"
       id="path-effect876"
       is_visible="true"
       lpeversion="1"
       weight="33.333333"
       steps="2"
       helper_size="0"
       apply_no_weight="true"
       apply_with_weight="true"
       only_selected="false" />
    <inkscape:path-effect
       effect="spiro"
       id="path-effect868"
       is_visible="true"
       lpeversion="1" />
    <inkscape:path-effect
       effect="spiro"
       id="path-effect864"
       is_visible="true"
       lpeversion="1" />
    <inkscape:path-effect
       effect="spiro"
       id="path-effect856"
       is_visible="true"
       lpeversion="1" />
    <inkscape:path-effect
       effect="bspline"
       id="path-effect844"
       is_visible="true"
       lpeversion="1"
       weight="33.333333"
       steps="2"
       helper_size="0"
       apply_no_weight="true"
       apply_with_weight="true"
       only_selected="false" />
  </defs>
  <sodipodi:namedview
     id="base"
     pagecolor="#ffffff"
     bordercolor="#666666"
     borderopacity="1.0"
     inkscape:pageopacity="0"
     inkscape:pageshadow="2"
     inkscape:zoom="1"
     inkscape:cx="745.66407"
     inkscape:cy="131.69823"
     inkscape:document-units="mm"
     inkscape:current-layer="layer1"
     inkscape:document-rotation="0"
     showgrid="false"
     showguides="false"
     fit-margin-top="0"
     fit-margin-left="0"
     fit-margin-right="0"
     fit-margin-bottom="0"
     inkscape:window-width="1920"
     inkscape:window-height="1009"
     inkscape:window-x="-8"
     inkscape:window-y="-8"
     inkscape:window-maximized="1" />
  <metadata
     id="metadata5">
    <rdf:RDF>
      <cc:Work
         rdf:about="">
        <dc:format>image/svg+xml</dc:format>
        <dc:type
           rdf:resource="http://purl.org/dc/dcmitype/StillImage" />
        <dc:title />
      </cc:Work>
    </rdf:RDF>
  </metadata>
  <g
     inkscape:label="Layer 1"
     inkscape:groupmode="layer"
     id="layer1"
     transform="translate(-36.505029,-57.815975)">
    <g
       aria-label="AmiguApp"
       id="text12"
       style="font-size:36.2683px;line-height:1.25;font-family:Huglove;-inkscape-font-specification:Huglove;fill:#e75b5b;fill-opacity:1;stroke-width:1.51118">
      <path
         d="m 47.36278,76.023524 c 0.217609,1.740878 0.362683,4.134586 1.015512,5.948001 0.362683,0.942976 1.305659,1.414463 2.13983,1.341927 0.725366,-0.03627 1.341927,-0.43522 1.668341,-1.051781 0.979245,-1.958488 1.160586,-8.704392 1.015513,-11.605856 -0.07254,-2.248634 -0.21761,-4.461 -0.725366,-6.673367 -0.43522,-1.668341 -0.979244,-3.300415 -2.284903,-4.533537 -1.26939,-1.26939 -2.756391,-1.849683 -4.569806,-1.559537 -1.487,0.21761 -2.683854,0.979244 -3.735635,1.92222 -5.403976,4.678611 -5.911732,13.528076 -5.041293,20.455321 0.07254,0.761634 0.326415,1.450732 0.652829,2.139829 0.471488,1.051781 1.523269,1.523269 2.538781,1.269391 1.015513,-0.253878 1.632074,-1.160586 1.632074,-2.35744 -0.03627,-0.544024 -0.108805,-1.124317 -0.108805,-1.740878 0,-0.979244 0,-1.994756 0,-3.082805 1.958488,-0.145074 3.880708,-0.290147 5.802928,-0.471488 z m -3.953245,-9.756173 c 1.305659,-2.683854 2.974001,-3.046537 3.518025,-0.181341 0.471488,2.466244 0.362683,4.932488 0.43522,7.471269 -1.849684,0 -3.663099,0 -5.512782,0 0,-2.75639 0.65283,-5.476513 1.559537,-7.289928 z"
         style="fill:#e75b5b;fill-opacity:1;stroke-width:1.51118"
         id="path29" />
      <path
         d="m 68.869819,69.676571 c 0.398951,-2.103561 2.538781,-4.025781 3.699366,-1.015512 0.471488,1.233122 0.544025,5.005025 0.398952,6.528294 -0.253878,1.958488 -0.07254,4.062049 2.828927,3.916976 2.538781,0 3.046537,-2.538781 3.19161,-4.461001 0.145074,-2.393707 -0.03627,-4.714879 -0.725366,-6.999781 -1.813415,-6.20188 -7.507538,-6.709636 -11.206904,-1.487001 -2.937732,-3.518025 -4.352196,-3.808171 -7.688879,-1.668341 -0.07254,-0.108805 -0.181342,-0.181342 -0.326415,-0.326415 -1.160586,-0.979244 -2.575049,-0.507756 -3.010269,1.124317 -0.797903,3.227879 -0.942976,9.466026 -0.03627,12.621368 0.362683,1.269391 1.26939,1.994757 2.321171,1.958488 1.958488,-0.07254 2.429976,-1.378195 2.429976,-3.155342 0,-1.124317 -0.290147,-3.119073 -0.253878,-4.315927 0.145073,-4.025781 2.284903,-9.139612 3.808171,-3.082806 0.507756,2.212367 0.07254,4.968757 0.43522,6.854709 0.290146,1.740878 1.523268,1.777147 2.502512,1.487 0.797903,-0.21761 1.341927,-0.398951 1.559537,-1.740878 0.07254,-0.616561 0.03627,-1.233122 0.03627,-1.813415 0,-1.341927 -0.21761,-3.082806 0.03627,-4.424733 z"
         style="fill:#e75b5b;fill-opacity:1;stroke-width:1.51118"
         id="path31" />
      <path
         d="m 86.53244,66.920181 c 0,-3.119074 -3.735634,-3.300416 -4.751147,-0.181342 -0.870439,2.756391 -1.378195,8.704392 0.398952,11.932271 1.487,2.720122 4.352195,1.233122 3.880708,-1.051781 -0.108805,-0.65283 -0.181342,-1.233122 -0.145074,-1.885952 0.145074,-2.75639 0.544025,-5.694123 0.616561,-8.813196 z m 1.051781,-6.564563 c 0,-1.378195 -1.124317,-2.357439 -2.575049,-2.321171 -1.414464,0.03627 -2.466244,1.051781 -2.466244,2.429976 0,1.305659 1.124317,2.393708 2.466244,2.393708 1.450732,0 2.611317,-1.124317 2.575049,-2.502513 z"
         style="fill:#e75b5b;fill-opacity:1;stroke-width:1.51118"
         id="path33" />
      <path
         d="m 88.454626,74.82667 c 0.616561,4.67861 5.150099,7.108586 9.357221,4.243391 -0.253878,1.523268 -0.652829,2.937732 -1.668341,4.134586 -0.616562,0.689098 -1.414464,1.051781 -2.284903,1.160586 -0.797903,0.07254 -1.523269,0.07254 -2.176098,-0.544025 -0.616561,-0.544024 -1.378196,-0.507756 -1.994757,-0.108805 -0.725366,0.507756 -0.979244,1.414464 -0.616561,2.284903 0.580293,1.26939 1.523269,2.13983 2.865196,2.683854 1.160585,0.398951 2.357439,0.471488 3.590561,0.398951 2.176098,-0.181341 3.880708,-1.088049 5.150096,-2.828927 0.87044,-1.196854 1.45073,-2.575049 1.77715,-3.989513 0.54402,-2.611317 0.61656,-5.186367 0.47149,-7.833952 -0.21761,-2.901464 -0.43522,-5.76666 -0.61656,-8.668124 -0.0363,-1.015512 -0.14508,-1.849683 -1.16059,-2.321171 -0.1088,-0.07254 -0.18134,-0.253878 -0.29015,-0.362683 -1.632069,-1.450732 -3.518021,-1.994757 -5.621582,-1.632074 -1.958488,0.326415 -3.445488,1.523269 -4.461001,3.155342 -1.994756,3.119074 -2.865195,6.528294 -2.321171,10.227661 z m 8.994538,-10.191392 c 0,3.445488 0.362683,6.927245 -0.181341,10.372733 -0.108805,0.689098 -0.362683,1.305659 -0.65283,1.958488 -0.326414,0.580293 -0.761634,0.65283 -1.196853,0.181342 -0.398952,-0.362683 -0.725366,-0.870439 -0.906708,-1.341927 -0.979244,-2.828927 -1.124317,-5.657855 -0.362683,-8.631855 0.326415,-1.559537 1.595805,-2.901464 3.300415,-2.538781 z"
         style="fill:#e75b5b;fill-opacity:1;stroke-width:1.51118"
         id="path35" />
      <path
         d="m 114.82165,72.976987 c 0.0725,0.03627 0.1088,0.07254 0.14507,0.07254 0.1088,0.942976 0.14507,1.849683 0.25388,2.792659 0.1088,0.870439 0.39895,1.70461 1.05178,2.35744 0.54402,0.544024 1.23312,0.652829 1.77714,0.290146 0.54403,-0.290146 0.6891,-0.906707 0.54403,-1.632073 -0.50776,-2.466245 -0.10881,-5.041294 0.25388,-7.616343 0.29014,-1.885952 0.68909,-3.771903 1.05178,-5.694123 0.0363,-0.398951 0.1088,-0.870439 0.0725,-1.269391 -0.18134,-1.088049 -1.19685,-1.595805 -2.06729,-0.979244 -0.36268,0.21761 -0.65283,0.616561 -0.83417,0.979244 -0.6891,1.160586 -1.34193,2.35744 -1.95849,3.518025 -1.30566,2.502513 -2.68385,4.968757 -4.02578,7.47127 -0.14507,0.253878 -0.72536,1.305659 -0.72536,0.43522 0.1088,-1.777147 0.14507,-3.518025 0.29014,-5.295172 0.10881,-1.196854 0.39895,-2.35744 0.50776,-3.554293 0.1088,-1.305659 -0.50776,-2.284903 -1.66834,-2.647586 -1.12432,-0.362683 -2.28491,0.108805 -2.90147,1.26939 -0.29014,0.507756 -0.50775,1.051781 -0.65283,1.559537 -0.72536,2.502513 -1.08805,5.041294 -0.94297,7.652611 0.0725,1.668342 0.43522,3.300415 1.26939,4.751147 0.43522,0.689098 0.94297,1.341927 1.66834,1.740879 1.12432,0.652829 2.21237,0.652829 3.33668,-0.108805 0.6891,-0.43522 1.16059,-1.124317 1.52327,-1.849683 0.65283,-1.414464 1.41446,-2.792659 2.03103,-4.243391 z"
         style="fill:#e75b5b;fill-opacity:1;stroke-width:1.51118"
         id="path37" />
      <path
         d="m 131.3962,76.023524 c 0.21761,1.740878 0.36268,4.134586 1.01551,5.948001 0.36268,0.942976 1.30566,1.414463 2.13983,1.341927 0.72536,-0.03627 1.34193,-0.43522 1.66834,-1.051781 0.97924,-1.958488 1.16059,-8.704392 1.01551,-11.605856 -0.0725,-2.248634 -0.21761,-4.461 -0.72536,-6.673367 -0.43522,-1.668341 -0.97925,-3.300415 -2.28491,-4.533537 -1.26939,-1.26939 -2.75639,-1.849683 -4.5698,-1.559537 -1.487,0.21761 -2.68386,0.979244 -3.73564,1.92222 -5.40397,4.678611 -5.91173,13.528076 -5.04129,20.455321 0.0725,0.761634 0.32641,1.450732 0.65283,2.139829 0.47149,1.051781 1.52327,1.523269 2.53878,1.269391 1.01551,-0.253878 1.63207,-1.160586 1.63207,-2.35744 -0.0363,-0.544024 -0.1088,-1.124317 -0.1088,-1.740878 0,-0.979244 0,-1.994756 0,-3.082805 1.95849,-0.145074 3.88071,-0.290147 5.80293,-0.471488 z m -3.95325,-9.756173 c 1.30566,-2.683854 2.974,-3.046537 3.51803,-0.181341 0.47148,2.466244 0.36268,4.932488 0.43522,7.471269 -1.84969,0 -3.6631,0 -5.51279,0 0,-2.75639 0.65283,-5.476513 1.55954,-7.289928 z"
         style="fill:#e75b5b;fill-opacity:1;stroke-width:1.51118"
         id="path39" />
      <path
         d="m 145.976,77.002768 c 1.34193,0.471488 2.50251,0.580293 3.69936,0.290146 1.81342,-0.471488 3.22788,-1.595805 4.17086,-3.19161 1.52327,-2.575049 2.03102,-6.093074 0.54402,-8.776929 -2.61131,-4.714878 -7.58007,-3.372951 -9.50229,-0.761634 -0.0363,-0.616561 -0.10881,-2.357439 -0.18134,-2.828927 -0.14508,-1.124317 -0.7979,-1.92222 -1.74088,-2.067293 -1.12432,-0.21761 -2.06729,0.290146 -2.53878,1.414463 -0.21761,0.398952 -0.32642,0.797903 -0.39895,1.233123 -0.79791,4.751147 -0.90671,8.486782 -0.32642,12.512563 0.18134,1.341927 0.65283,6.093074 2.0673,9.030806 0.97924,2.031025 2.75639,2.720123 4.09831,1.958488 0.90671,-0.507756 1.81342,-1.740878 1.30566,-3.227878 -0.72536,-2.103561 -0.83417,-2.031025 -1.19685,-5.585318 z m -0.10881,-4.787416 c -0.43522,-1.70461 0.29015,-7.761416 3.80817,-7.471269 2.13983,0.181341 2.21237,3.844439 0.94298,6.056806 -1.487,2.611317 -3.19161,2.538781 -4.75115,1.414463 z"
         style="fill:#e75b5b;fill-opacity:1;stroke-width:1.51118"
         id="path41" />
      <path
         d="m 163.60232,77.002768 c 1.34193,0.471488 2.50251,0.580293 3.69936,0.290146 1.81342,-0.471488 3.22788,-1.595805 4.17086,-3.19161 1.52327,-2.575049 2.03102,-6.093074 0.54402,-8.776929 -2.61131,-4.714878 -7.58007,-3.372951 -9.50229,-0.761634 -0.0363,-0.616561 -0.10881,-2.357439 -0.18134,-2.828927 -0.14508,-1.124317 -0.79791,-1.92222 -1.74088,-2.067293 -1.12432,-0.21761 -2.06729,0.290146 -2.53878,1.414463 -0.21761,0.398952 -0.32642,0.797903 -0.39895,1.233123 -0.79791,4.751147 -0.90671,8.486782 -0.32642,12.512563 0.18134,1.341927 0.65283,6.093074 2.0673,9.030806 0.97924,2.031025 2.75639,2.720123 4.09831,1.958488 0.90671,-0.507756 1.81342,-1.740878 1.30566,-3.227878 -0.72536,-2.103561 -0.83417,-2.031025 -1.19685,-5.585318 z m -0.10881,-4.787416 c -0.43522,-1.70461 0.29015,-7.761416 3.80817,-7.471269 2.13983,0.181341 2.21237,3.844439 0.94298,6.056806 -1.487,2.611317 -3.19161,2.538781 -4.75115,1.414463 z"
         style="fill:#e75b5b;fill-opacity:1;stroke-width:1.51118"
         id="path43" />
    </g>
  </g>
  <g
     inkscape:groupmode="layer"
     id="layer2"
     inkscape:label="coelho"
     transform="translate(-36.505029,-57.815975)"
     style="display:inline">
    <path
       style="opacity:0.995;fill:#e75b5b;fill-opacity:1;fill-rule:evenodd;stroke:none;stroke-width:0.283046;stroke-miterlimit:4;stroke-dasharray:none;stroke-opacity:1;paint-order:stroke fill markers"
       d="m 57.470428,78.569873 c -2.316822,4.611335 -2.351206,5.948474 -2.120505,7.896266 0.539674,4.55642 5.920929,6.336831 6.943065,5.304225 0.441143,-0.445661 -3.125648,-0.300058 -3.73181,-5.719023 -0.248738,-2.223671 0.770334,-3.298913 2.019741,-8.544333"
       id="path894"
       sodipodi:nodetypes="csssc" />
    <path
       style="opacity:0.995;fill:#e75b5b;fill-opacity:1;fill-rule:evenodd;stroke:none;stroke-width:0.283839;stroke-miterlimit:4;stroke-dasharray:none;stroke-opacity:1;paint-order:stroke fill markers"
       d="m 76.200658,78.68856 c 2.316823,4.637196 2.335343,6.858937 1.839873,8.777921 -1.183038,4.581972 -7.610236,5.618733 -7.784965,4.580336 -0.09939,-0.590654 4.341725,0.451894 4.947887,-4.997461 0.248738,-2.23614 -0.863879,-4.154785 -2.113286,-9.429622"
       id="path894-4"
       sodipodi:nodetypes="csssc" />
  </g>
  <g
     inkscape:groupmode="layer"
     id="layer3"
     inkscape:label="face "
     transform="translate(-36.505029,-57.815975)"
     style="display:inline">
    <ellipse
       style="opacity:0.995;fill:#e75b5b;fill-opacity:1;fill-rule:evenodd;stroke:none;stroke-width:0.339136;stroke-miterlimit:4;stroke-dasharray:none;stroke-opacity:1;paint-order:stroke fill markers"
       id="path926"
       cx="62.994366"
       cy="83.365852"
       rx="1.0468469"
       ry="1.775901" />
    <ellipse
       style="opacity:0.995;fill:#e75b5b;fill-opacity:1;fill-rule:evenodd;stroke:none;stroke-width:0.339136;stroke-miterlimit:4;stroke-dasharray:none;stroke-opacity:1;paint-order:stroke fill markers"
       id="path926-9"
       cx="70.628059"
       cy="83.365852"
       rx="1.0468469"
       ry="1.775901" />
    <path
       style="opacity:0.995;fill:#e75b5b;fill-opacity:1;fill-rule:evenodd;stroke:none;stroke-width:0.3;stroke-linejoin:round;stroke-miterlimit:4;stroke-dasharray:none;stroke-opacity:1;paint-order:stroke fill markers"
       d="m 65.076726,87.869229 c -0.766583,-0.408857 0.97456,1.802938 1.841085,1.745993 0.899769,-0.05913 2.319073,-1.761486 1.642451,-1.733941 0,0 -0.984395,0.72404 -1.593215,0.723947 -0.543994,-8.3e-5 -0.568747,-0.03114 -1.890321,-0.735999 z"
       id="path959"
       sodipodi:nodetypes="sscss" />
  </g>
</svg>
